<svg data-v-423bf9ae="" xmlns="http://www.w3.org/2000/svg" viewBox="0 0 310 90" class="iconLeft"><!----><!----><!----><g data-v-423bf9ae="" id="a7c5ec8c-44ce-4967-8434-7d34f318d601" fill="#2e282a" transform="matrix(5.159071445465088,0,0,5.159071445465088,104.01546478271484,7.98366117477417)"><path d="M6.15 7.10L7.74 10.50L6.23 10.50L4.79 7.73L4.79 7.73Q4.79 7.73 4.71 7.59L4.71 7.59L4.71 7.59Q4.63 7.45 4.49 7.28L4.49 7.28L4.49 7.28Q4.35 7.11 4.14 6.96L4.14 6.96L4.14 6.96Q3.93 6.82 3.68 6.82L3.68 6.82L2.56 6.82L2.56 10.50L1.16 10.50L1.16 1.36L3.33 1.36L3.33 1.36Q3.92 1.36 4.56 1.40L4.56 1.40L4.56 1.40Q5.21 1.44 5.75 1.70L5.75 1.70L5.75 1.70Q6.29 1.96 6.64 2.52L6.64 2.52L6.64 2.52Q7 3.08 7 4.10L7 4.10L7 4.10Q7 4.82 6.68 5.24L6.68 5.24L6.68 5.24Q6.36 5.66 5.98 5.88L5.98 5.88L5.98 5.88Q5.52 6.13 4.96 6.24L4.96 6.24L4.96 6.24Q5.28 6.31 5.60 6.47L5.60 6.47L5.60 6.47Q5.92 6.64 6.15 7.10L6.15 7.10ZM2.56 5.57L3.42 5.57L3.42 5.57Q3.81 5.57 4.18 5.55L4.18 5.55L4.18 5.55Q4.55 5.53 4.84 5.39L4.84 5.39L4.84 5.39Q5.12 5.25 5.30 4.95L5.30 4.95L5.30 4.95Q5.47 4.65 5.47 4.10L5.47 4.10L5.47 4.10Q5.47 3.54 5.30 3.23L5.30 3.23L5.30 3.23Q5.12 2.93 4.82 2.79L4.82 2.79L4.82 2.79Q4.52 2.65 4.12 2.63L4.12 2.63L4.12 2.63Q3.71 2.60 3.26 2.60L3.26 2.60L2.56 2.60L2.56 5.57ZM12.42 3.19L12.42 3.19L12.42 3.19Q12.96 3.19 13.60 3.35L13.60 3.35L13.60 3.35Q14.24 3.51 14.78 3.93L14.78 3.93L14.78 3.93Q15.33 4.35 15.70 5.08L15.70 5.08L15.70 5.08Q16.07 5.81 16.07 6.94L16.07 6.94L16.07 6.94Q16.07 8.08 15.70 8.80L15.70 8.80L15.70 8.80Q15.33 9.52 14.78 9.93L14.78 9.93L14.78 9.93Q14.24 10.35 13.60 10.51L13.60 10.51L13.60 10.51Q12.96 10.67 12.42 10.67L12.42 10.67L12.42 10.67Q11.89 10.67 11.26 10.51L11.26 10.51L11.26 10.51Q10.63 10.35 10.08 9.93L10.08 9.93L10.08 9.93Q9.53 9.52 9.17 8.80L9.17 8.80L9.17 8.80Q8.81 8.08 8.81 6.94L8.81 6.94L8.81 6.94Q8.81 5.81 9.17 5.08L9.17 5.08L9.17 5.08Q9.53 4.35 10.08 3.93L10.08 3.93L10.08 3.93Q10.63 3.51 11.26 3.35L11.26 3.35L11.26 3.35Q11.89 3.19 12.42 3.19ZM12.42 9.60L12.42 9.60L12.42 9.60Q12.88 9.60 13.29 9.44L13.29 9.44L13.29 9.44Q13.71 9.28 14.01 8.95L14.01 8.95L14.01 8.95Q14.31 8.61 14.49 8.11L14.49 8.11L14.49 8.11Q14.67 7.62 14.67 6.94L14.67 6.94L14.67 6.94Q14.67 6.27 14.49 5.77L14.49 5.77L14.49 5.77Q14.31 5.26 14.01 4.93L14.01 4.93L14.01 4.93Q13.71 4.59 13.29 4.42L13.29 4.42L13.29 4.42Q12.88 4.26 12.42 4.26L12.42 4.26L12.42 4.26Q11.97 4.26 11.57 4.42L11.57 4.42L11.57 4.42Q11.17 4.59 10.87 4.93L10.87 4.93L10.87 4.93Q10.57 5.26 10.40 5.77L10.40 5.77L10.40 5.77Q10.22 6.27 10.22 6.94L10.22 6.94L10.22 6.94Q10.22 7.62 10.40 8.11L10.40 8.11L10.40 8.11Q10.57 8.61 10.87 8.95L10.87 8.95L10.87 8.95Q11.17 9.28 11.57 9.44L11.57 9.44L11.57 9.44Q11.97 9.60 12.42 9.60ZM21.59 3.19L21.59 3.19L21.59 3.19Q22.30 3.19 22.87 3.49L22.87 3.49L22.87 3.49Q23.44 3.79 23.83 4.31L23.83 4.31L23.83 4.31Q24.22 4.83 24.42 5.51L24.42 5.51L24.42 5.51Q24.63 6.19 24.63 6.94L24.63 6.94L24.63 6.94Q24.63 7.70 24.42 8.38L24.42 8.38L24.42 8.38Q24.22 9.06 23.83 9.56L23.83 9.56L23.83 9.56Q23.44 10.07 22.87 10.37L22.87 10.37L22.87 10.37Q22.30 10.67 21.59 10.67L21.59 10.67L21.59 10.67Q20.90 10.67 20.43 10.49L20.43 10.49L20.43 10.49Q19.96 10.30 19.68 10.08L19.68 10.08L19.68 10.08Q19.35 9.83 19.15 9.48L19.15 9.48L19.15 9.49L18.87 10.50L17.84 10.50L17.84 1.62L19.15 1.62L19.15 4.28L19.15 4.28Q19.59 3.71 20.24 3.45L20.24 3.45L20.24 3.45Q20.89 3.19 21.59 3.19ZM21.29 9.60L21.29 9.60L21.29 9.60Q21.69 9.60 22.04 9.44L22.04 9.44L22.04 9.44Q22.39 9.28 22.65 8.95L22.65 8.95L22.65 8.95Q22.92 8.62 23.07 8.12L23.07 8.12L23.07 8.12Q23.23 7.62 23.23 6.94L23.23 6.94L23.23 6.94Q23.23 6.27 23.07 5.77L23.07 5.77L23.07 5.77Q22.92 5.26 22.65 4.93L22.65 4.93L22.65 4.93Q22.39 4.59 22.04 4.42L22.04 4.42L22.04 4.42Q21.69 4.26 21.29 4.26L21.29 4.26L21.29 4.26Q20.87 4.26 20.49 4.42L20.49 4.42L20.49 4.42Q20.10 4.59 19.81 4.93L19.81 4.93L19.81 4.93Q19.52 5.26 19.33 5.77L19.33 5.77L19.33 5.77Q19.15 6.27 19.15 6.94L19.15 6.94L19.15 6.94Q19.15 7.62 19.33 8.12L19.33 8.12L19.33 8.12Q19.52 8.62 19.81 8.95L19.81 8.95L19.81 8.95Q20.10 9.28 20.49 9.44L20.49 9.44L20.49 9.44Q20.87 9.60 21.29 9.60ZM30.62 3.36L32.13 3.36L29.46 10.12L29.46 10.12Q29.15 10.93 28.66 11.56L28.66 11.56L28.66 11.56Q28.45 11.83 28.17 12.09L28.17 12.09L28.17 12.09Q27.89 12.35 27.54 12.54L27.54 12.54L27.54 12.54Q27.19 12.74 26.77 12.87L26.77 12.87L26.77 12.87Q26.35 12.99 25.84 12.99L25.84 12.99L25.84 11.90L25.84 11.90Q26.59 11.90 27.03 11.62L27.03 11.62L27.03 11.62Q27.47 11.34 27.71 10.99L27.71 10.99L27.71 10.99Q27.97 10.60 28.08 10.08L28.08 10.08L25.37 3.36L26.88 3.36L28.78 9.18L30.62 3.36ZM37.11 3.19L37.11 3.19L37.11 3.19Q38.51 3.19 39.16 4.02L39.16 4.02L39.16 4.02Q39.80 4.84 39.80 6.37L39.80 6.37L39.80 10.50L38.47 10.50L38.47 6.73L38.47 6.73Q38.47 5.46 38.15 4.86L38.15 4.86L38.15 4.86Q37.83 4.26 37.02 4.26L37.02 4.26L37.02 4.26Q36.46 4.26 36.04 4.47L36.04 4.47L36.04 4.47Q35.63 4.68 35.35 5.06L35.35 5.06L35.35 5.06Q35.07 5.45 34.93 5.99L34.93 5.99L34.93 5.99Q34.79 6.52 34.79 7.18L34.79 7.18L34.79 10.50L33.47 10.50L33.47 3.36L34.58 3.36L34.79 4.49L34.79 4.49Q35.13 3.92 35.77 3.56L35.77 3.56L35.77 3.56Q36.41 3.19 37.11 3.19Z"></path></g><defs data-v-423bf9ae=""><linearGradient data-v-423bf9ae="" gradientTransform="rotate(25)" id="ad43c510-02c6-403c-a59c-55a3fb8f129e" x1="0%" y1="0%" x2="100%" y2="0%"><stop data-v-423bf9ae="" offset="0%" style="stop-color: rgb(242, 184, 128); stop-opacity: 1;"></stop><stop data-v-423bf9ae="" offset="100%" style="stop-color: rgb(150, 107, 157); stop-opacity: 1;"></stop></linearGradient></defs><g data-v-423bf9ae="" id="4dee7029-cd4f-47fa-9ec8-c078df7e8a94" transform="matrix(2.8125,0,0,2.8125,0,0)" stroke="none" fill="url(#ad43c510-02c6-403c-a59c-55a3fb8f129e)"><path d="M11.579 32H32L21.789 14.314z"></path><circle cx="8.683" cy="8.683" r="8.683"></circle></g><!----></svg>